<?xml version="1.0" encoding="UTF-8"?>
<!DOCTYPE svg PUBLIC "-//W3C//DTD SVG 1.1//EN" "http://www.w3.org/Graphics/SVG/1.1/DTD/svg11.dtd">
<!-- Creator: CorelDRAW -->
<svg xmlns="http://www.w3.org/2000/svg" xml:space="preserve" width="1016.07mm" height="288.806mm" version="1.1" style="shape-rendering:geometricPrecision; text-rendering:geometricPrecision; image-rendering:optimizeQuality; fill-rule:evenodd; clip-rule:evenodd"
viewBox="0 0 101607.3 28880.62"
 xmlns:xlink="http://www.w3.org/1999/xlink"
 xmlns:xodm="http://www.corel.com/coreldraw/odm/2003">
 <defs>
  <style type="text/css">
   <![CDATA[
    .fil1 {fill:none}
    .fil0 {fill:#FEFEFE}
   ]]>
  </style>
 </defs>
 <g id="Camada_x0020_1">
  <metadata id="CorelCorpID_0Corel-Layer"/>
  <g id="_2437237910976">
   <g>
    <polygon class="fil0" points="36863.12,11934.93 37388.13,11934.93 37388.13,12967.79 38963.89,12967.79 38963.89,13507.82 39487.49,13507.82 39487.49,15590.73 38963.89,15590.73 38963.89,13507.82 37388.13,13507.82 37388.13,15597.91 36863.12,15597.91 "/>
    <path class="fil0" d="M40534.48 13496.12l1583.48 0 524.8 0 0 1054.14 -524.8 0 -1583.48 0 0 529.35 2110.43 0 0 535.53 -2110.43 0 0 -535.53 -520.22 0 0 -529.35 -4.58 0 0 -524.79 4.58 0 0 -529.35 520.22 0zm0 529.35l1583.48 0 0 -529.35 0 -515.67 -1583.48 0 0 515.67 0 529.35z"/>
    <rect class="fil0" x="43189.67" y="11932.91" width="527.73" height="3678.93"/>
    <rect class="fil0" x="44241.35" y="11932.91" width="527.73" height="3678.93"/>
    <path class="fil0" d="M45813.14 15608.17l1592.67 0 0 -513.9 526.98 0 0 -1592.67 -526.98 0 0 -530.96 -1592.67 0 0 530.96 -513.16 0 0 1592.67 513.16 0 0 513.9zm1585.07 -534.58l-1563.65 0 0 -1568.37 1563.65 0 0 1568.37z"/>
    <path class="fil0" d="M55283.46 15608.17l1592.67 0 0 -513.9 526.98 0 0 -1592.67 -526.98 0 0 -530.96 -1592.67 0 0 530.96 -513.16 0 0 1592.67 513.16 0 0 513.9zm1585.07 -534.58l-1563.64 0 0 -1568.37 1563.64 0 0 1568.37z"/>
    <rect class="fil0" x="61061.93" y="11932.91" width="527.73" height="3678.93"/>
    <path class="fil0" d="M50548.96 12974.26l532.3 0 0 2103.04 -532.3 0 0 -2103.04zm3163.28 0l532.31 0 0 2103.04 -532.31 0 0 -2103.04zm-1060.21 2639.72l1068.98 0 0 -532.31 -1068.98 0 0 532.31zm-519.23 -2639.72l532.31 0 0 2103.04 -532.31 0 0 -2103.04zm-1064.61 2639.72l1068.98 0 0 -532.31 -1068.98 0 0 532.31z"/>
    <polygon class="fil0" points="60025.89,13508.45 60550.51,13508.45 60550.51,14029.98 60025.89,14029.98 60025.89,13508.45 60025.89,12987.87 58451.15,12987.87 57915.1,12987.87 57915.1,15613.56 58451.15,15613.56 58451.15,13508.45 "/>
    <polygon class="fil0" points="62113.95,15084.03 62655.29,15084.03 64237.7,15084.03 64237.7,13496.99 62655.29,13496.99 62655.29,12978.78 64237.7,12978.78 64237.7,11933.11 64760.55,11933.11 64760.55,15602.25 64572.09,15602.25 64237.7,15602.25 62655.29,15602.25 62655.29,15084.03 62655.29,13506.24 62113.95,13506.24 "/>
   </g>
   <rect class="fil1" x="2.87" y="10.53" width="101587.3" height="28860.62"/>
  </g>
 </g>
</svg>
