<?xml version="1.0" encoding="UTF-8"?>
<!DOCTYPE svg PUBLIC "-//W3C//DTD SVG 1.1//EN" "http://www.w3.org/Graphics/SVG/1.1/DTD/svg11.dtd">
<!-- Creator: CorelDRAW -->
<svg xmlns="http://www.w3.org/2000/svg" xml:space="preserve" width="1015.87mm" height="173.683mm" version="1.1" style="shape-rendering:geometricPrecision; text-rendering:geometricPrecision; image-rendering:optimizeQuality; fill-rule:evenodd; clip-rule:evenodd"
viewBox="0 0 101587.3 17368.3"
 xmlns:xlink="http://www.w3.org/1999/xlink"
 xmlns:xodm="http://www.corel.com/coreldraw/odm/2003">
 <defs>
  <style type="text/css">
   <![CDATA[
    .fil1 {fill:none}
    .fil0 {fill:#FEFEFE}
   ]]>
  </style>
 </defs>
 <g id="Camada_x0020_1">
  <metadata id="CorelCorpID_0Corel-Layer"/>
  <g id="_2437089557008">
   <polygon class="fil0" points="36855.43,6182.06 37380.44,6182.06 37380.44,7214.92 38956.2,7214.92 38956.2,7754.95 39479.8,7754.95 39479.8,9837.86 38956.2,9837.86 38956.2,7754.95 37380.44,7754.95 37380.44,9845.04 36855.43,9845.04 "/>
   <path class="fil0" d="M40526.79 7743.25l1583.48 0 524.8 0 0 1054.14 -524.8 0 -1583.48 0 0 529.35 2110.43 0 0 535.53 -2110.43 0 0 -535.53 -520.22 0 0 -529.35 -4.58 0 0 -524.79 4.58 0 0 -529.35 520.22 0zm0 529.35l1583.48 0 0 -529.35 0 -515.67 -1583.48 0 0 515.67 0 529.35z"/>
   <rect class="fil0" x="43181.98" y="6180.04" width="527.73" height="3678.93"/>
   <rect class="fil0" x="44233.66" y="6180.04" width="527.73" height="3678.93"/>
   <path class="fil0" d="M45805.45 9855.3l1592.67 0 0 -513.9 526.98 0 0 -1592.67 -526.98 0 0 -530.96 -1592.67 0 0 530.96 -513.16 0 0 1592.67 513.16 0 0 513.9zm1585.07 -534.58l-1563.65 0 0 -1568.37 1563.65 0 0 1568.37z"/>
   <path class="fil0" d="M55275.77 9855.3l1592.67 0 0 -513.9 526.98 0 0 -1592.67 -526.98 0 0 -530.96 -1592.67 0 0 530.96 -513.16 0 0 1592.67 513.16 0 0 513.9zm1585.07 -534.58l-1563.64 0 0 -1568.37 1563.64 0 0 1568.37z"/>
   <rect class="fil0" x="61054.24" y="6180.04" width="527.73" height="3678.93"/>
   <path class="fil0" d="M50541.27 7221.39l532.3 0 0 2103.04 -532.3 0 0 -2103.04zm3163.28 0l532.31 0 0 2103.04 -532.31 0 0 -2103.04zm-1060.21 2639.72l1068.98 0 0 -532.31 -1068.98 0 0 532.31zm-519.23 -2639.72l532.31 0 0 2103.04 -532.31 0 0 -2103.04zm-1064.61 2639.72l1068.98 0 0 -532.31 -1068.98 0 0 532.31z"/>
   <polygon class="fil0" points="60018.2,7755.58 60542.82,7755.58 60542.82,8277.11 60018.2,8277.11 60018.2,7755.58 60018.2,7235 58443.46,7235 57907.41,7235 57907.41,9860.69 58443.46,9860.69 58443.46,7755.58 "/>
   <polygon class="fil0" points="62106.26,9331.16 62647.6,9331.16 64230.01,9331.16 64230.01,7744.12 62647.6,7744.12 62647.6,7225.91 64230.01,7225.91 64230.01,6180.24 64752.86,6180.24 64752.86,9849.38 64564.4,9849.38 64230.01,9849.38 62647.6,9849.38 62647.6,9331.16 62647.6,7753.37 62106.26,7753.37 "/>
  </g>
  <rect class="fil1" x="-4.82" y="3.82" width="101587.3" height="17368.3"/>
 </g>
</svg>
