<?xml version="1.0" encoding="UTF-8"?>
<!DOCTYPE svg PUBLIC "-//W3C//DTD SVG 1.1//EN" "http://www.w3.org/Graphics/SVG/1.1/DTD/svg11.dtd">
<!-- Creator: CorelDRAW -->
<svg xmlns="http://www.w3.org/2000/svg" xml:space="preserve" width="47.5702mm" height="45.835mm" version="1.1" style="shape-rendering:geometricPrecision; text-rendering:geometricPrecision; image-rendering:optimizeQuality; fill-rule:evenodd; clip-rule:evenodd"
viewBox="0 0 4757.02 4583.5"
 xmlns:xlink="http://www.w3.org/1999/xlink"
 xmlns:xodm="http://www.corel.com/coreldraw/odm/2003">
 <defs>
  <style type="text/css">
   <![CDATA[
    .fil1 {fill:#070B08;fill-rule:nonzero}
    .fil2 {fill:#FEFEFE;fill-rule:nonzero}
    .fil0 {fill:white;fill-rule:nonzero}
   ]]>
  </style>
 </defs>
 <g id="Camada_x0020_1">
  <metadata id="CorelCorpID_0Corel-Layer"/>
  <g id="_2437090449072">
   <path class="fil0" d="M2275.01 780.37l-7.67 -303.74 -10.06 -441.59c0.01,-0.27 0,-0.55 0,-0.83 0,-17.39 14.1,-31.49 31.49,-31.49 0.53,0 1.07,0.02 1.6,0.04l342.09 16.41c14.41,0.77 25.94,12.18 26.73,26.46 34.22,586.67 50.79,1172.1 49.74,1756.3 -0.01,5.26 4.37,9.53 9.78,9.53l0.27 -0.01c5.41,0 9.79,-4.38 9.79,-9.79l1.06 -145.25c0.27,-23.86 9.96,-46.41 26.95,-62.93 184.88,-182.24 397.17,-248.04 636.89,-197.42 12.19,2.77 22.63,9.42 29.91,18.89 18.24,23.18 37.03,53.08 67.72,80.59 128.06,115.01 244.74,244.39 350.04,388.15 0.59,0.95 0.9,2.06 0.9,3.18 0,3.36 -2.73,6.09 -6.09,6.09 -1.06,0 -2.1,-0.28 -3.02,-0.8 -40.39,-26.64 -79.1,-46.49 -116.14,-59.54 -312.56,-109.36 -630.24,-108.83 -953.03,1.59 -22.93,7.76 -74.35,7.67 -154.25,-0.27 -131.5,-13.23 -234.69,-11.9 -355.6,-20.63 -8.06,-0.49 -16.45,-2.05 -24.53,-4.66 -441.4,-140.07 -845.95,-97.74 -1174.3,232.46 -0.41,0.49 -0.98,0.9 -1.61,1.15 -2.3,0.93 -4.97,-0.29 -5.95,-2.72 -0.24,-0.59 -0.36,-1.21 -0.37,-1.83l0.52 -8.5c-0.04,-2.08 0.68,-4.24 2.02,-5.97 150.52,-181.41 228.43,-320.97 233.72,-418.69 0.05,-0.49 0.06,-0.99 0.06,-1.48 0,-13.3 -10.78,-24.08 -24.08,-24.08 -4.3,0 -8.52,1.15 -12.22,3.33l-106.89 61.65c0.07,-0.03 0.07,-0.03 0.07,-0.03 -2.6,1.56 -6.02,0.66 -7.7,-2.02l-4.55 -8c-0.6,-1.06 -0.92,-2.25 -0.92,-3.47 0,-2.18 1.04,-4.23 2.79,-5.53 25.74,-17.99 112.08,-69.23 259.01,-153.72 177.01,-101.86 351.11,-118.53 551.13,-46.04 121.53,43.92 230.36,99.57 326.5,166.95 7.63,5.34 12.25,13.99 12.43,23.29l4.76 171.98c0.1,3.89 3.27,7 7.16,7 0.44,0 0.89,-0.04 1.32,-0.12l6.87 -1.06c0.74,0 1.33,-0.71 1.33,-1.59l-25.67 -1011.24z"/>
   <path class="fil0" d="M2249.87 444.88l8.21 335.76 20.9 758.56c0.02,0.1 0.02,0.21 0.02,0.32 0,6.87 -5.57,12.44 -12.44,12.44 -2.34,0 -4.64,-0.66 -6.62,-1.91 -143.94,-91.2 -293.79,-161.22 -449.54,-210.08 -60.5,-18.88 -159.9,-36.34 -298.19,-52.39 -34.39,-3.88 -66.76,-16.4 -97.1,-37.57 -129.64,-90.75 -194.73,-147.37 -371.21,-133.88 -0.28,0.02 -0.57,0.03 -0.86,0.03 -6.87,0 -12.44,-5.57 -12.44,-12.44 0,-0.45 0.03,-0.91 0.07,-1.35 10.23,-109.71 32.99,-214.66 68.27,-314.85 0.42,-1.27 0.63,-2.6 0.63,-3.93 0,-7.01 -5.69,-12.7 -12.7,-12.7 -3.84,0 -7.47,1.74 -9.88,4.73 -87.06,111.91 -111.4,211.92 -146.59,361.15 -47.1,198.79 -66.86,391.32 -59.27,577.58 0.88,19.23 4.5,39.16 10.85,59.8 3.64,11.74 14.51,19.75 26.8,19.75 5,0 9.91,-1.34 14.22,-3.87l198.69 -114.57c1.87,-1.01 3.63,-1.66 5.44,-2.05 10.29,-2.19 20.39,4.27 22.54,14.42 0.4,1.85 0.5,3.74 0.32,5.63 -10.31,124.08 -152.92,327.54 -294.21,559.58 -75.49,124 -142.52,253.47 -201.08,388.41 -46.74,107.78 -229.66,537.37 -548.75,1288.79 -58.2,137.05 -97.1,245 -62.97,387.88 0.08,0.25 0.14,0.61 0.17,0.97 0.51,4.8 -2.86,9.08 -7.51,9.57 -0.42,0.05 -0.86,0.06 -1.29,0.04l-7.51 -0.26c-2.2,-0.19 -4.03,-1.81 -4.49,-3.98 -30.69,-121.53 -30.61,-222.77 0.26,-303.73 243.24,-637.47 388.23,-1019.89 434.98,-1147.24 105.3,-286.63 171.62,-477.92 198.96,-573.88 13.76,-47.89 25.14,-97.63 28.84,-146.05 27.78,-385.76 47.89,-834.23 206.11,-1225.81 228.6,-565.42 722.84,-848.26 1311.28,-887.15 -0.27,0.02 -0.1,0 0.04,-0.01 16.48,-1.15 30.77,11.39 31.94,28 0.01,0.14 0.01,0.29 0.02,0.43l15.09 375.86z"/>
   <path class="fil0" d="M4223.67 2395.13c-2.12,0.17 -4.41,-0.18 -6.88,-1.06 -1.51,-0.48 -2.77,-1.63 -3.44,-3.15 -118.18,-247.32 -265.38,-475.93 -441.59,-685.83 -52.74,-63.15 -112.8,-133.52 -180.18,-211.14 -1.09,-1.25 -1.69,-2.85 -1.69,-4.51 0,-3.63 2.82,-6.64 6.45,-6.87 26.72,-1.84 119.85,69.59 205.05,126.48 3.19,2.07 6.59,3.48 10.16,4.24 16.01,3.4 31.72,-6.71 35.09,-22.57 0.77,-3.59 0.84,-7.3 0.23,-10.93 -32.97,-203.8 -77.49,-397.69 -133.59,-581.66 -11.46,-37.4 -34.48,-76.47 -69.05,-117.22 -4.07,-4.67 -9.97,-7.35 -16.17,-7.35 -11.83,0 -21.43,9.6 -21.43,21.43 0,0.33 0.01,0.67 0.02,1.01l19.59 373.32c0.01,0.23 0.02,0.45 0.02,0.67 0,6.87 -5.57,12.44 -12.44,12.44 -2.04,0 -4.04,-0.5 -5.84,-1.46 -249.24,-137.32 -459.58,-128.86 -665.69,72.49 -34.57,33.69 -92.96,84.23 -175.16,151.61 -2.14,1.7 -4.36,2.91 -6.73,3.73 -11.46,3.95 -23.92,-2.04 -27.82,-13.37 -0.84,-2.42 -1.23,-4.97 -1.17,-7.53 3.35,-456.16 -11.28,-927.75 -43.92,-1414.76 -0.03,-0.7 -0.04,-1.33 -0.02,-1.96 0.41,-11.68 10.1,-20.83 21.63,-20.43 0.67,0.03 1.35,0.08 2.01,0.17 780.98,100.54 1173.62,665.95 1300.36,1400.7 25.58,148.52 59.62,366.27 102.13,653.26 1.71,11.1 4.44,20.45 8.25,29.33l105.52 254.57c0.11,0.24 0.22,0.53 0.29,0.84 0.61,2.41 -0.74,4.82 -3.01,5.39 -0.31,0.07 -0.62,0.11 -0.93,0.11l-0.05 0.01z"/>
   <path class="fil1" d="M2267.34 476.63l7.67 303.74 -16.93 0.27 -8.21 -335.76c2.12,14.82 7.94,25.4 17.47,31.75z"/>
   <ellipse class="fil0" transform="matrix(0.999507 -0.0314108 0.0314108 0.999507 3055.27 2003.02)" rx="25.4" ry="6.08"/>
   <path class="fil0" d="M1586.56 2008.3c1.41,-1.58 6.44,-1.14 15.08,1.33 0.16,0.18 0.16,0.49 0.01,0.79 -3.45,6.09 -3.97,5.03 -11.38,5.56 -0.18,0.02 -0.37,0.03 -0.55,0.03 -2.48,0 -4.5,-2.02 -4.5,-4.5 0,-1.21 0.49,-2.37 1.35,-3.21l-0.01 0z"/>
   <path class="fil0" d="M2620.82 2165.73c0,0.01 0,0.01 0,0.01 0,2.97 -2.33,5.41 -5.3,5.55l-146.31 4.23c-0.77,0.03 -0.82,0.03 -0.82,0.03 -76.84,1.34 -139.75,-31.57 -140.48,-73.5 0,-0.07 0,-0.15 0,-0.21l0.02 -0.67c-0.6,-43.33 61.07,-78.32 137.8,-79.66 0.02,0 0.04,0 0.06,0l145.5 -4.21c3.07,0 5.56,2.49 5.56,5.56l3.97 142.87z"/>
   <path class="fil0" d="M1272.24 2460.48c31.04,-156.64 110.15,-293.16 237.33,-409.58 -0.05,0.06 -0.03,0.03 0,0 3.85,-3.59 9.96,-3.29 13.65,0.66 0.01,0.01 0.03,0.03 0.04,0.04l0.07 0.36c1.07,1.21 1.66,2.77 1.66,4.38 0,1.99 -0.9,3.88 -2.45,5.14 -87.32,71.97 -149.94,156.55 -187.86,253.74 -3.18,8.11 -21.08,57.33 -53.71,147.64 -0.53,1.97 -2.32,3.34 -4.36,3.34 -2.5,0 -4.53,-2.03 -4.53,-4.53 0,-0.4 0.05,-0.8 0.16,-1.19z"/>
   <path class="fil0" d="M2907.89 2067.84l-196.85 81.75c-1.24,0.49 -2.36,0.8 -3.5,0.98 -8.37,1.33 -16.22,-4.26 -17.52,-12.49 -0.18,-1.15 -0.23,-2.33 -0.14,-3.49l2.11 -48.23c0.41,-5.53 5.02,-9.81 10.56,-9.81 2.3,0 4.54,0.75 6.38,2.14 19.75,15.87 35.36,25.39 46.83,28.57 10.99,3.04 22.82,1.51 32.8,-4.24 47.98,-28.04 86.44,-44.27 115.36,-48.68 0.26,-0.03 0.52,-0.04 0.78,-0.04 3.94,0 7.14,3.2 7.14,7.14 0,2.71 -1.53,5.18 -3.95,6.39l0 0.01z"/>
   <path class="fil0" d="M2665.27 2280.03c-6,8.64 -22.49,4.15 -49.48,-13.49 -3.08,-1.99 -6.67,-3.05 -10.34,-3.05 -10.16,0 -18.54,7.98 -19.03,18.13l-1.05 21.96c-0.42,8.9 -7.76,15.9 -16.66,15.9 -0.27,0 -0.54,-0.01 -0.81,-0.02l-82.81 -3.97c-8.23,-0.33 -14.74,-7.1 -14.74,-15.34 0,-0.8 0.06,-1.6 0.19,-2.39 4.58,-28.22 -9.97,-43.57 -43.66,-46.04 -7.9,-0.59 -14,-7.48 -13.5,-15.42 0.36,-5.77 3.97,-11.21 10.85,-16.33 2.03,-1.44 4.45,-2.21 6.92,-2.21 0.97,0 1.94,0.12 2.88,0.35 76.9,21.17 145.96,27 207.16,17.47 3.56,-0.55 7.08,-0.36 10.44,0.53 14.11,3.79 22.27,19.1 18.23,34.2 -0.95,3.53 -2.53,6.86 -4.65,9.8l0.06 -0.08z"/>
   <ellipse class="fil0" transform="matrix(-0.997314 -0.0732382 0.0732382 -0.997314 2922.71 2288.23)" rx="181.5" ry="24.6"/>
   <path class="fil0" d="M2216.27 2248.02c0.03,-0.01 0.06,-0.01 0.08,-0.01 0.19,0 0.37,0.1 0.46,0.27l0.25 1.06c0.52,1.69 0.53,1.75 0.54,1.79 12.16,42.4 -62.53,101.04 -166.83,130.96l-11.51 3.25c-104.87,30.07 -199.29,20.01 -211.61,-22.29l-0.05 0.59c0.01,-0.29 0.25,-0.53 0.54,-0.53l388.13 -115.09z"/>
   <path class="fil0" d="M2636.43 2412.85l-34.13 -6.61c-1.08,-0.2 -2.19,-0.3 -3.29,-0.3 -3.53,0 -6.98,1.03 -9.94,2.94 -64.38,40.57 -119.77,31.49 -166.16,-27.25 -1.98,-2.42 -3.07,-5.46 -3.07,-8.59 0,-7.45 6.04,-13.49 13.49,-13.49 1.41,0 2.81,0.22 4.15,0.65 70.54,21.17 132.45,24.78 185.72,10.85 1.33,-0.33 2.7,-0.49 4.06,-0.49 5.85,0 11.3,2.98 14.47,7.9 8.11,12.87 9.34,23.19 3.7,30.95 -1.76,2.26 -4.47,3.59 -7.33,3.59 -0.56,0 -1.12,-0.05 -1.67,-0.15z"/>
   <path class="fil0" d="M4236.1 2437.99c-2.47,-1.94 -4.59,-6.26 -6.35,-12.97 -0.3,-0.76 -0.46,-1.56 -0.46,-2.38 0,-3.54 2.87,-6.41 6.41,-6.41 2.62,0 4.98,1.6 5.95,4.03 3.71,6.88 5.47,11.29 5.3,13.23 -0.3,3.42 -3.16,6.05 -6.59,6.05 -1.56,0 -3.06,-0.55 -4.25,-1.55l-0.01 0z"/>
   <path class="fil0" d="M2620.03 2512.6c-37.75,12.17 -81.41,20.99 -130.97,26.46 -1.73,0.19 -3.48,0.29 -5.23,0.29 -16.84,0 -32.4,-8.99 -40.8,-23.58l-13.77 -23.81c-1.28,-2.17 -1.96,-4.65 -1.96,-7.17 0,-7.74 6.28,-14.02 14.02,-14.02 0.3,0 0.61,0.01 0.92,0.03l173.55 8.2c9.15,0.45 16.34,8.01 16.34,17.17 0,7.53 -4.91,14.2 -12.1,16.43z"/>
   <ellipse class="fil2" transform="matrix(0.144356 -0.989526 0.989526 0.144356 1250.55 2594.62)" rx="65.61" ry="5.55"/>
   <path class="fil0" d="M2536.68 2617.9l-8.73 13.76c-2.84,4.62 -4.34,9.94 -4.34,15.36 0,4.49 1.03,8.93 3.01,12.95 20.29,41.45 22.14,96.75 5.56,165.9 -0.02,0.1 -0.04,0.21 -0.07,0.31 -2.16,8.05 -10.55,12.79 -18.73,10.6 -0.08,-0.03 -0.17,-0.05 -0.24,-0.07 -75.41,-22.75 -57.42,-83.87 -43.4,-153.98 1.88,-9.15 7.45,-17.1 15.4,-21.99 16.02,-9.86 27.82,-24.76 35.4,-44.69 1.77,-4.76 6.09,-6.61 12.97,-5.55 0.37,0.06 0.68,0.15 0.97,0.27 2.44,0.98 3.57,3.87 2.53,6.44 -0.1,0.26 -0.22,0.51 -0.36,0.74l0.03 -0.05z"/>
   <path class="fil0" d="M1888.98 2757.6l269.35 -27.51c5.58,-0.64 10.54,-2.32 14.87,-4.98l141.5 -81.54c1.31,-0.72 2.77,-1.1 4.25,-1.1 4.82,0 8.73,3.91 8.73,8.73 0,0.73 -0.09,1.45 -0.27,2.16 -34.41,129.38 -201.1,195 -324.39,214.31 -9.31,1.41 -16.74,8.62 -18.52,17.98 -0.53,2.13 -0.8,3.36 -0.8,3.72 -1.94,5.13 -6.6,8.65 -11.89,8.98l-224.65 12.18c-11.05,0.79 -19.62,10.01 -19.62,21.1 0,9.98 6.97,18.6 16.72,20.7l17.99 3.45c1.25,0.2 2.37,0.77 3.24,1.64 2.38,2.38 2.3,6.32 -0.18,8.8 -0.85,0.84 -1.92,1.45 -3.07,1.73 -39.68,8.11 -65.08,7.76 -76.19,-1.06 -43.04,-34.22 -85.38,-63.76 -127,-88.64 -2.34,-1.38 -3.79,-3.91 -3.79,-6.63 0,-4.24 3.43,-7.66 7.67,-7.66 0.12,0 0.24,0 0.36,0.01 156.45,8.29 314.58,-8.38 474.39,-50.01 59.26,-15.35 108.65,-34.22 148.16,-56.62 3.31,-1.95 5.32,-5.5 5.32,-9.32 0,-4.98 -3.39,-9.31 -8.21,-10.52 -20.65,-4.77 -37.06,-5.38 -49.23,-1.86 -93.49,26.99 -175.06,35.81 -244.74,26.46 -0.95,-0.33 -1.59,-1.24 -1.59,-2.25 0,-1.01 0.64,-1.92 1.6,-2.25l-0.01 0z"/>
   <path class="fil0" d="M3359.54 3034.89c-6.88,0 -11.56,-0.62 -14.03,-1.85 -90.31,-45.51 -179.12,-59.45 -266.43,-41.81 -9.04,1.88 -19.07,0.8 -28.06,-3.22 -119.32,-54.99 -264.31,-111.87 -310.87,-213.21 -1.44,-3.1 -2.19,-6.49 -2.19,-9.91 0,-13 10.55,-23.55 23.55,-23.55 3.02,0 6.01,0.58 8.8,1.71 126.29,49.74 255.5,76.2 387.61,79.38 0,0 0.01,0 0.01,0 1.94,0 3.55,1.5 3.69,3.44 0.05,0.26 0.07,0.52 0.07,0.79 0,2.99 -2.37,5.45 -5.35,5.56l-102.4 5.55c-12.88,0.18 -23.22,10.67 -23.22,23.55 0,11.64 8.53,21.54 20.05,23.28l321.73 62.18c6.49,1.23 11.18,6.91 11.18,13.51 0,4.38 -2.09,8.5 -5.62,11.09 -8.82,6.53 -14.82,12.09 -17.99,16.68 -5.29,7.58 -6.35,13.93 -3.18,19.05 2.47,4.41 5.64,8.99 9.53,13.76 1.15,1.51 1.78,3.37 1.78,5.28 0,4.8 -3.87,8.69 -8.66,8.73l0 0.01z"/>
   <path class="fil0" d="M2332.69 2859.47c-0.18,75.32 -42.42,124.79 -126.74,148.43 -3.47,1.03 -7.27,-0.89 -8.69,-4.45l-3.74 -9.04c-0.17,-0.43 -0.33,-0.93 -0.45,-1.45 -1.15,-4.98 1.84,-9.92 6.69,-11.04 0.53,-0.13 1.08,-0.2 1.62,-0.22 43.26,-1.94 83.24,-43.47 119.93,-124.61 0.69,-2.54 3,-4.31 5.63,-4.31 3.21,0 5.82,2.61 5.82,5.82 0,0.29 -0.02,0.58 -0.07,0.87z"/>
   <path class="fil0" d="M2865.03 2984.09c-70.56,12.17 -119.86,-14.91 -147.9,-81.23 -0.37,-0.96 -0.56,-1.98 -0.56,-3 0,-4.53 3.67,-8.2 8.2,-8.2 2.2,0 4.31,0.89 5.85,2.46 35.46,38.64 80.26,63.24 134.41,73.83 3.89,0.7 6.73,4.1 6.73,8.06 0,3.96 -2.84,7.36 -6.73,8.07l0 0.01z"/>
   <path class="fil0" d="M2480.85 2913.71c78.14,-7.59 154.87,30.51 230.19,114.3 0.69,0.76 1.07,1.76 1.07,2.8 0,2.34 -1.89,4.23 -4.23,4.23 -0.65,0 -1.28,-0.15 -1.86,-0.43 -16.76,-7.93 -37.05,-20.8 -60.86,-38.62 -51.86,-38.98 -105.66,-55.73 -161.4,-50.27 -55.56,5.47 -105.03,32.37 -148.43,80.7 -19.75,22.05 -37.13,38.63 -52.12,49.74 -0.7,0.47 -1.53,0.73 -2.38,0.73 -2.34,0 -4.23,-1.89 -4.23,-4.23 0,-0.72 0.18,-1.43 0.53,-2.06 57.5,-96.83 125.41,-149.13 203.72,-156.89z"/>
   <path class="fil0" d="M1378.86 3081.72c159.28,-1.41 291.75,-16.58 397.41,-45.51 20.81,-5.82 34.04,-19.49 39.69,-41.01 2.28,-8 8.16,-14.26 15.83,-17.03 91.4,-33.27 176.17,-42.24 254.31,-26.89 5.54,1 9.55,5.82 9.55,11.44 0,5.92 -4.45,10.9 -10.33,11.57l-213.8 29.11c-5.15,0.54 -9.86,4.12 -12.08,9.33 -0.59,1.37 -2.47,3.99 -5.65,7.87 -2.72,3.58 -6.61,6.63 -11.1,8.59 -61.39,24.79 -129.22,39.92 -203.48,45.39 -79.02,5.82 -151.51,13.31 -217.48,22.48 -17.82,2.47 -32.81,0.89 -44.98,-4.76 -1.95,-0.92 -3.2,-2.88 -3.2,-5.04 0,-2.98 2.35,-5.43 5.32,-5.55l-0.01 0.01z"/>
   <path class="fil0" d="M2151.45 3030.13c17.81,0.53 35.45,1.32 52.91,2.38 3.63,0.3 6.88,1.28 9.79,2.9 12.53,6.94 16.42,23.86 8.7,37.79 -1.82,3.29 -4.21,6.23 -7.02,8.64 -0.24,0.27 -2.82,0.41 -7.76,0.41 0.01,-0.01 0.01,-0.01 0.01,-0.01 -3.82,0 -7.43,-1.76 -9.79,-4.76 -10.59,-13.75 -27.09,-25.66 -49.49,-35.71 -2.19,-0.99 -3.6,-3.17 -3.6,-5.57 0,-3.36 2.73,-6.09 6.09,-6.09 0.06,0 0.11,0 0.17,0l-0.01 0.02z"/>
   <path class="fil0" d="M2354.65 3392.87c-25.26,-0.01 -45.76,-20.51 -45.76,-45.78l-0.01 -23.28c0.03,-2.99 0.03,-3.06 0.03,-3.06 2.94,-167.85 90.26,-302.48 195,-300.64 0,0 0,0 0,0 104.73,1.83 187.27,139.36 184.35,307.21l0.03 20.31c-0.01,25.26 -20.51,45.76 -45.78,45.76l-287.86 -0.52z"/>
   <ellipse class="fil0" transform="matrix(0.999816 -0.0191974 0.0191974 0.999816 2932.24 3045.47)" rx="130.17" ry="6.88"/>
   <ellipse class="fil0" transform="matrix(0.62932 -0.777146 0.777146 0.62932 1930 3410.38)" rx="142.61" ry="11.64"/>
   <path class="fil0" d="M2154.62 3342.86l5.56 3.97c5.37,4.51 -24.34,54.37 -66.16,111.95l-91.8 127.24c-42.06,57.89 -80.47,101.69 -85.82,97.88l-4.93 -3.69 243.15 -337.35z"/>
   <ellipse class="fil0" transform="matrix(0.710799 -0.703395 0.703395 0.710799 1849.03 3413.48)" rx="34.39" ry="6.08"/>
   <ellipse class="fil0" transform="matrix(-0.472551 -0.881303 0.881303 -0.472551 2773.75 3506.88)" rx="73.02" ry="4.76"/>
   <path class="fil0" d="M4457.03 4579.26c106.89,-75.41 191.29,-136.79 208.22,-262.2 36.25,-264.06 -23.28,-536.05 -91.28,-812.01 -0.13,-0.51 -0.2,-1.04 -0.2,-1.56 0,-2.73 1.81,-5.12 4.44,-5.86l0.26 0.01c0.51,-0.15 1.03,-0.22 1.56,-0.22 2.58,0 4.86,1.7 5.58,4.18 80.26,259.3 128.5,428.11 144.73,506.43 20.11,95.77 39.43,203.72 13.76,304.53 -34.04,135.11 -128.59,226.31 -283.63,273.58 -0.28,0.05 -0.57,0.08 -0.85,0.08 -2.19,0 -3.97,-1.78 -3.97,-3.97 0,-1.15 0.5,-2.25 1.37,-3l0.01 0.01z"/>
   <path class="fil0" d="M2772.95 3691.32c0.18,-4.41 3.8,-7.88 8.2,-7.88 3.17,0 6.06,1.83 7.41,4.7l70.38 130.97c3.48,6.82 4.93,13.89 4.47,20.98l-10.55 223.5c0,-0.06 0,-0.05 0,-0.05 -0.47,9.05 6.36,16.76 15.26,17.23 0.01,0 0.02,0 0.03,0l111.44 5.31c0.27,0 0.55,0.01 0.82,0.01 8.32,0 15.18,-6.53 15.59,-14.84l1.85 -41.26c0.47,-6.51 5.89,-11.54 12.4,-11.54 4.34,0 8.36,2.26 10.62,5.96l59.27 102.94c0.5,0.87 0.77,1.88 0.77,2.9 0,3.21 -2.6,5.81 -5.81,5.82l-913.6 0.01c-12.64,0.01 -25.29,-1.14 -37.57,-3.44 -74.96,-14.46 -145.7,-21.6 -212.19,-21.43 -9.18,0.18 -38.19,-12.7 -87.05,-38.63 -8.76,-4.64 -12.47,-15.18 -8.46,-24.09 9.34,-21.33 20.81,-36.67 34.39,-46.02 2.02,-1.44 4.43,-2.21 6.9,-2.21 6.58,0 11.91,5.33 11.91,11.91 0,0.2 -0.01,0.41 -0.02,0.61l-2.39 47.1c0.02,0 0.02,0 0.02,0.01 -0.74,14 10.14,25.96 24.29,26.71 0.01,0 0.03,0 0.04,0l84.92 3.98c0.45,0.01 0.9,0.02 1.34,0.02 12.81,0 23.28,-10.25 23.54,-23.06 2.64,-122.76 41.09,-239.87 115.35,-351.35 1.44,-2.12 3.83,-3.39 6.38,-3.39 4.24,0 7.67,3.43 7.67,7.67 0,0.16 -0.01,0.32 -0.02,0.48l-16.67 345.55c0,0.25 -0.01,0.53 -0.01,0.8 0,8.32 6.53,15.18 14.84,15.59l109.79 5.3c0.18,0 0.36,0 0.54,0 8.03,0 14.55,-6.52 14.55,-14.55 0,-0.09 0,-0.18 0,-0.27 -4.77,-182.38 26.18,-348.98 92.86,-499.79 4.58,-10.41 11.02,-16.76 19.31,-19.05 0.67,-0.19 1.29,-0.3 1.91,-0.36 6.97,-0.73 13.21,4.21 13.93,11.04 0.07,0.69 0.09,1.39 0.04,2.08l-23.55 492.59c-0.02,0.34 -0.03,0.7 -0.03,1.05 0,10.38 8.41,18.79 18.79,18.79 0.01,0 0.02,0 0.03,0l97.36 0.01c8.19,0.07 15.12,-6.51 15.61,-14.96l25.14 -523.47c0,-0.28 0.03,-0.82 0.09,-1.36 1.25,-11.91 12.05,-20.55 24.11,-19.28 0.49,0.05 0.98,0.12 1.46,0.2l40.75 7.74c19.72,3.82 33.76,21.58 32.81,41.66l-23.02 480.1c-0.02,0.34 -0.03,0.71 -0.03,1.07 0,12.31 9.69,22.45 21.99,23l104.77 5.03c11.34,0.59 21.03,-7.76 21.97,-18.86l33.06 -369.28z"/>
   <path class="fil0" d="M3515.03 3611.05l5.56 3.07c3.33,1.84 4.54,6.02 2.7,9.35l-242.7 439.64c-1.83,3.33 -6.02,4.53 -9.34,2.7l-5.56 -3.07c-3.33,-1.84 -4.54,-6.02 -2.7,-9.35l242.69 -439.64c1.84,-3.33 6.02,-4.54 9.35,-2.7z"/>
   <ellipse class="fil0" transform="matrix(0.657375 -0.753563 0.753563 0.657375 1683.93 3732.28)" rx="83.61" ry="8.2"/>
   <ellipse class="fil0" transform="matrix(-0.384295 -0.92321 0.92321 -0.384295 1581.54 3964.58)" rx="107.68" ry="13.49"/>
   <path class="fil0" d="M1545.82 4194.82l-30.96 -16.93c-11.52,-6.17 -18.73,-18.2 -18.73,-31.28 0,-14.87 9.29,-28.17 23.25,-33.28 46.02,-17.29 80.76,-6.7 104.22,31.75 6.39,10.52 4.82,24.1 -3.85,32.7 -14.01,13.83 -14.49,27.45 -1.44,40.85 1.11,1.13 2.18,2.39 3.15,3.72 10.22,14.07 7.97,33.14 -5.03,42.59 -1.22,0.88 -2.53,1.67 -3.88,2.34 -33.2,16.08 -65.94,11.33 -98.22,-14.25 -5.03,-3.97 -7.98,-10.04 -7.98,-16.45 0,-11.05 8.61,-20.2 19.64,-20.86l15.59 -1.32c5.35,-0.63 9.37,-5.15 9.37,-10.52 0,-3.71 -1.95,-7.15 -5.12,-9.06l-0.01 0z"/>
   <path class="fil0" d="M3327.26 4214.14l15.61 0.79c11.21,0.44 20.07,9.66 20.07,20.88 0,6.26 -2.8,12.19 -7.64,16.15 -31.57,26.47 -64.11,32.11 -97.63,16.94 -1.72,-0.81 -3.08,-1.6 -4.36,-2.5 -13.17,-9.21 -15.75,-28.24 -5.78,-42.48 0.97,-1.39 2.05,-2.7 3.21,-3.93 12.56,-13.43 11.69,-26.84 -2.59,-40.25 -9.13,-8.75 -10.91,-22.37 -4.58,-33.15 22.28,-38.75 56.7,-50.11 103.27,-34.05 14.3,4.91 23.91,18.38 23.91,33.51 0,12.71 -6.81,24.45 -17.84,30.76l-30.42 17.75c-3.14,1.91 -5.05,5.33 -5.05,9.01 0,5.55 4.28,10.15 9.81,10.55l0.01 0.02z"/>
   <path class="fil0" d="M2857.62 4270.49l-52.92 1.85c-17.46,-2.64 -33.6,-1.58 -48.41,3.18l-43.92 2.91c-271.47,26.28 -543.02,31.4 -814.66,15.35 -71.61,-4.24 -132.64,-14.03 -183.09,-29.37 -3.24,-0.98 -5.46,-3.97 -5.46,-7.36 0,-2.76 1.48,-5.31 3.88,-6.67l10.05 -5.82c2.5,-1.41 5.16,-2.12 7.76,-2.11l1384.21 0c3.36,-0.02 6.09,2.71 6.09,6.07l-0.27 7.16c0.15,1.58 -1.16,3.01 -2.91,3.16 0,0 0,0 0,0l-260.35 11.65z"/>
   <polygon class="fil1" points="2857.62,4270.49 2804.7,4272.34 "/>
   <polygon class="fil1" points="2756.29,4275.52 2712.37,4278.43 "/>
  </g>
 </g>
</svg>
