<?xml version="1.0" encoding="UTF-8" standalone="no"?>
<!DOCTYPE svg PUBLIC "-//W3C//DTD SVG 1.1//EN" "http://www.w3.org/Graphics/SVG/1.1/DTD/svg11.dtd">
<svg xmlns="http://www.w3.org/2000/svg" version="1.1" viewBox="0.00 0.00 344.00 344.00">
<g stroke-width="2.00" fill="none" stroke-linecap="butt">
<path stroke="#838584" vector-effect="non-scaling-stroke" d="
  M 163.27 93.20
  L 162.98 81.72"
/>
<path stroke="#838584" vector-effect="non-scaling-stroke" d="
  M 162.32 80.52
  L 162.63 93.21"
/>
<path stroke="#838584" vector-effect="non-scaling-stroke" d="
  M 185.29 225.11
  L 183.29 225.18"
/>
<path stroke="#838584" vector-effect="non-scaling-stroke" d="
  M 181.46 225.30
  L 179.80 225.41"
/>
</g>
<path fill="#ffffff" d="
  M 163.27 93.20
  L 162.98 81.72
  L 162.60 65.03
  A 1.19 1.19 0.0 0 1 163.85 63.81
  L 176.78 64.43
  A 1.07 1.06 0.0 0 1 177.79 65.43
  Q 179.73 98.69 179.67 131.81
  A 0.37 0.36 0.0 0 0 180.04 132.17
  L 180.05 132.17
  A 0.37 0.37 0.0 0 0 180.42 131.80
  L 180.46 126.31
  A 3.37 3.34 -22.2 0 1 181.47 123.94
  Q 191.96 113.60 205.55 116.47
  A 1.96 1.93 -12.5 0 1 206.67 117.17
  C 207.37 118.06 208.08 119.19 209.24 120.23
  Q 216.50 126.75 222.47 134.90
  A 0.23 0.23 0.0 0 1 222.16 135.22
  Q 219.87 133.71 217.77 132.97
  Q 200.05 126.77 181.75 133.03
  Q 180.45 133.47 175.92 133.02
  C 170.95 132.52 167.05 132.57 162.48 132.24
  A 3.84 3.75 55.2 0 1 161.54 132.06
  C 144.87 126.77 129.58 128.37 117.17 140.85
  A 0.18 0.17 68.4 0 1 116.87 140.72
  L 116.89 140.40
  A 0.37 0.36 64.9 0 1 116.97 140.17
  Q 125.50 129.89 125.80 124.35
  A 0.91 0.91 0.0 0 0 124.43 123.51
  L 120.39 125.84
  A 0.22 0.21 59.7 0 1 120.10 125.76
  L 119.93 125.46
  A 0.26 0.26 0.0 0 1 120.00 125.12
  Q 121.46 124.10 129.79 119.31
  C 136.48 115.46 143.06 114.83 150.62 117.57
  Q 157.51 120.06 162.96 123.88
  A 1.10 1.10 0.0 0 1 163.43 124.76
  L 163.61 131.26
  A 0.27 0.27 0.0 0 0 163.93 131.52
  L 164.19 131.48
  A 0.06 0.05 90.0 0 0 164.24 131.42
  L 163.27 93.20
  Z"
/>
<path fill="#ffffff" d="
  M 162.32 80.52
  L 162.63 93.21
  L 163.42 121.88
  A 0.47 0.47 0.0 0 1 162.70 122.29
  Q 154.54 117.12 145.71 114.35
  Q 142.28 113.28 134.44 112.37
  Q 132.49 112.15 130.77 110.95
  C 125.87 107.52 123.41 105.38 116.74 105.89
  A 0.47 0.47 0.0 0 1 116.24 105.37
  Q 116.82 99.15 118.82 93.47
  A 0.48 0.48 0.0 0 0 117.99 93.02
  C 114.70 97.25 113.78 101.03 112.45 106.67
  Q 109.78 117.94 110.21 128.50
  Q 110.26 129.59 110.62 130.76
  A 1.06 1.06 0.0 0 0 112.17 131.36
  L 119.68 127.03
  A 0.72 0.71 -12.8 0 1 120.75 127.70
  C 120.36 132.40 114.97 140.09 109.63 148.86
  Q 105.35 155.89 102.03 163.54
  Q 99.38 169.65 81.29 212.25
  C 79.09 217.43 77.62 221.51 78.91 226.91
  A 0.33 0.32 84.6 0 1 78.58 227.31
  L 78.30 227.30
  A 0.19 0.19 0.0 0 1 78.13 227.15
  Q 76.39 220.26 78.14 215.67
  Q 91.93 179.53 94.58 172.31
  Q 100.55 156.06 102.10 150.62
  C 102.62 148.81 103.05 146.93 103.19 145.10
  C 104.24 130.52 105.00 113.57 110.98 98.77
  C 119.62 77.40 138.30 66.71 160.54 65.24
  A 1.14 1.13 86.8 0 1 161.75 66.33
  L 162.32 80.52
  Z"
/>
<path fill="#ffffff" d="
  M 236.92 154.23
  Q 236.80 154.24 236.66 154.19
  A 0.22 0.21 86.3 0 1 236.53 154.07
  Q 229.83 140.05 219.84 128.15
  Q 216.85 124.57 213.03 120.17
  A 0.26 0.26 0.0 0 1 213.21 119.74
  C 214.22 119.67 217.74 122.37 220.96 124.52
  A 1.12 1.11 12.3 0 0 222.68 123.42
  Q 220.81 111.86 217.63 101.43
  Q 216.98 99.31 215.02 97.00
  A 0.81 0.81 0.0 0 0 213.60 97.57
  L 214.34 111.68
  A 0.47 0.47 0.0 0 1 213.65 112.12
  C 204.23 106.93 196.28 107.25 188.49 114.86
  Q 186.53 116.77 181.87 120.59
  A 0.83 0.82 -19.6 0 1 180.52 119.95
  Q 180.71 94.08 178.86 66.47
  A 0.80 0.79 -88.2 0 1 179.75 65.63
  C 209.27 69.43 224.11 90.80 228.90 118.57
  Q 230.35 126.99 232.76 143.26
  A 4.57 4.38 30.8 0 0 233.05 144.31
  L 237.06 153.99
  A 0.17 0.16 76.6 0 1 236.92 154.23
  Z"
/>
<path fill="#070b08" d="
  M 162.98 81.72
  L 163.27 93.20
  L 162.63 93.21
  L 162.32 80.52
  Q 162.44 81.36 162.98 81.72
  Z"
/>
<ellipse fill="#ffffff" cx="0.00" cy="0.00" transform="translate(192.76,139.41) rotate(-1.8)" rx="0.96" ry="0.23"/>
<path fill="#ffffff" d="
  M 137.25 139.61
  Q 137.33 139.52 137.82 139.66
  A 0.03 0.02 -58.3 0 1 137.82 139.69
  C 137.69 139.92 137.67 139.88 137.39 139.90
  A 0.17 0.17 0.0 0 1 137.25 139.61
  Z"
/>
<path fill="#ffffff" d="
  M 176.34 145.56
  A 0.21 0.21 0.0 0 1 176.14 145.77
  L 170.61 145.93
  A 5.26 2.87 -1.6 0 1 165.27 143.20
  L 165.27 143.12
  A 5.26 2.87 -1.6 0 1 170.45 140.11
  L 175.98 139.95
  A 0.21 0.21 0.0 0 1 176.19 140.16
  L 176.34 145.56
  Z"
/>
<path fill="#ffffff" d="
  M 125.37 156.70
  Q 127.13 147.82 134.34 141.22
  A 0.37 0.36 47.7 0 1 134.86 141.25
  L 134.86 141.26
  A 0.25 0.25 0.0 0 1 134.83 141.62
  Q 129.88 145.70 127.73 151.21
  Q 127.55 151.67 125.70 156.79
  A 0.17 0.17 0.0 0 1 125.37 156.70
  Z"
/>
<path fill="#ffffff" d="
  M 187.19 141.86
  L 179.75 144.95
  A 0.58 0.57 -9.7 0 1 178.95 144.39
  L 179.03 142.56
  A 0.40 0.40 0.0 0 1 179.67 142.27
  Q 180.79 143.17 181.44 143.35
  A 1.63 1.61 -52.0 0 0 182.68 143.19
  Q 185.40 141.60 187.04 141.35
  A 0.27 0.27 0.0 0 1 187.19 141.86
  Z"
/>
<path fill="#ffffff" d="
  M 178.02 149.88
  Q 177.68 150.37 176.15 149.37
  A 0.72 0.72 0.0 0 0 175.04 149.94
  L 175.00 150.77
  A 0.63 0.63 0.0 0 1 174.34 151.37
  L 171.21 151.22
  A 0.58 0.58 0.0 0 1 170.66 150.55
  Q 170.92 148.95 169.01 148.81
  A 0.56 0.55 4.7 0 1 168.50 148.22
  Q 168.52 147.90 168.91 147.61
  A 0.45 0.45 0.0 0 1 169.28 147.54
  Q 173.64 148.74 177.11 148.20
  A 1.07 1.00 -75.2 0 1 178.02 149.88
  Z"
/>
<ellipse fill="#ffffff" cx="0.00" cy="0.00" transform="translate(187.75,150.19) rotate(-175.8)" rx="6.86" ry="0.93"/>
<path fill="#ffffff" d="
  M 161.05 148.67
  A 0.02 0.02 0.0 0 1 161.07 148.68
  L 161.08 148.72
  A 7.43 3.02 -16.5 0 1 154.82 153.73
  L 154.36 153.86
  A 7.43 3.02 -16.5 0 1 146.38 153.08
  L 146.36 153.04
  A 0.02 0.02 0.0 0 1 146.38 153.02
  L 161.05 148.67
  Z"
/>
<path fill="#ffffff" d="
  M 176.93 154.90
  L 175.64 154.65
  A 0.69 0.69 0.0 0 0 175.14 154.75
  Q 171.49 157.05 168.86 153.72
  A 0.51 0.51 0.0 0 1 169.41 152.91
  Q 173.41 154.11 176.43 153.32
  A 0.65 0.65 0.0 0 1 177.13 153.60
  Q 177.59 154.33 177.27 154.77
  A 0.35 0.35 0.0 0 1 176.93 154.90
  Z"
/>
<path fill="#ffffff" d="
  M 237.39 155.85
  Q 237.25 155.74 237.15 155.36
  A 0.24 0.24 0.0 0 1 237.60 155.18
  Q 237.81 155.57 237.80 155.68
  A 0.25 0.25 0.0 0 1 237.39 155.85
  Z"
/>
<path fill="#ffffff" d="
  M 176.31 158.67
  Q 174.17 159.36 171.36 159.67
  A 1.78 1.78 0.0 0 1 169.62 158.79
  L 169.10 157.89
  A 0.53 0.53 0.0 0 1 169.59 157.09
  L 176.15 157.40
  A 0.65 0.65 0.0 0 1 176.31 158.67
  Z"
/>
<ellipse fill="#070b08" cx="0.00" cy="0.00" transform="translate(124.55,161.77) rotate(-81.7)" rx="2.48" ry="0.21"/>
<path fill="#ffffff" d="
  M 173.16 162.65
  L 172.83 163.17
  A 1.11 1.11 0.0 0 0 172.78 164.24
  Q 173.93 166.59 172.99 170.51
  A 0.58 0.57 15.0 0 1 172.27 170.92
  C 169.42 170.06 170.10 167.75 170.63 165.10
  A 1.28 1.27 -10.1 0 1 171.21 164.27
  Q 172.12 163.71 172.55 162.58
  Q 172.65 162.31 173.04 162.37
  A 0.19 0.18 -68.7 0 1 173.16 162.65
  Z"
/>
<path fill="#ffffff" d="
  M 148.68 167.93
  L 158.86 166.89
  A 1.37 1.27 24.6 0 0 159.41 166.71
  L 164.77 163.62
  A 0.33 0.33 0.0 0 1 165.25 163.99
  C 163.95 168.88 157.65 171.36 152.99 172.09
  A 0.85 0.84 -89.0 0 0 152.29 172.77
  Q 152.26 172.89 152.26 172.91
  A 0.53 0.51 -81.0 0 1 151.81 173.25
  L 143.32 173.71
  A 0.80 0.80 0.0 0 0 143.21 175.29
  L 143.89 175.42
  A 0.24 0.23 -45.2 0 1 143.89 175.88
  Q 141.64 176.34 141.01 175.84
  Q 138.57 173.90 136.21 172.49
  A 0.29 0.29 0.0 0 1 136.37 171.95
  Q 145.24 172.42 154.30 170.06
  Q 157.66 169.19 159.90 167.92
  A 0.41 0.41 0.0 0 0 159.79 167.17
  Q 158.62 166.90 157.93 167.10
  Q 152.63 168.63 148.68 168.10
  A 0.09 0.09 0.0 0 1 148.68 167.93
  Z"
/>
<path fill="#ffffff" d="
  M 204.26 178.41
  Q 203.87 178.41 203.73 178.34
  Q 198.61 175.76 193.66 176.76
  A 1.77 1.76 51.7 0 1 192.58 176.63
  C 188.09 174.56 182.61 172.41 180.85 168.58
  A 0.89 0.89 0.0 0 1 181.99 167.38
  Q 189.15 170.20 196.64 170.38
  A 0.14 0.14 0.0 0 1 196.78 170.51
  A 0.21 0.21 0.0 0 1 196.58 170.75
  L 192.71 170.96
  A 0.89 0.89 0.0 0 0 192.59 172.73
  L 204.75 175.08
  A 0.52 0.52 0.0 0 1 204.96 176.01
  Q 204.46 176.38 204.28 176.64
  Q 203.98 177.07 204.16 177.36
  Q 204.30 177.61 204.52 177.88
  A 0.33 0.33 0.0 0 1 204.26 178.41
  Z"
/>
<path fill="#ffffff" d="
  M 165.45 171.78
  Q 165.44 176.05 160.66 177.39
  A 0.28 0.27 71.5 0 1 160.33 177.22
  L 160.19 176.88
  A 0.35 0.34 77.5 0 1 160.49 176.40
  Q 162.94 176.29 165.02 171.69
  A 0.22 0.22 0.0 0 1 165.45 171.78
  Z"
/>
<path fill="#ffffff" d="
  M 185.57 176.49
  Q 181.57 177.18 179.98 173.42
  A 0.31 0.31 0.0 0 1 180.49 173.09
  Q 182.50 175.28 185.57 175.88
  A 0.31 0.31 0.0 0 1 185.57 176.49
  Z"
/>
<path fill="#ffffff" d="
  M 171.05 173.83
  Q 175.48 173.40 179.75 178.15
  A 0.16 0.16 0.0 0 1 179.56 178.40
  Q 178.61 177.95 177.26 176.94
  Q 174.32 174.73 171.16 175.04
  Q 168.01 175.35 165.55 178.09
  Q 164.43 179.34 163.58 179.97
  A 0.16 0.16 0.0 0 1 163.35 179.76
  Q 166.61 174.27 171.05 173.83
  Z"
/>
<path fill="#ffffff" d="
  M 129.40 180.18
  Q 138.43 180.10 144.42 178.46
  Q 145.60 178.13 145.92 176.91
  A 0.96 0.95 -2.5 0 1 146.51 176.27
  Q 151.70 174.38 156.13 175.25
  A 0.44 0.44 0.0 0 1 156.10 176.12
  L 148.02 177.22
  A 0.59 0.56 -81.8 0 0 147.56 177.58
  Q 147.53 177.65 147.35 177.87
  A 1.09 1.05 6.6 0 1 146.92 178.20
  Q 143.45 179.60 139.24 179.91
  Q 134.76 180.24 131.02 180.76
  Q 130.01 180.90 129.32 180.58
  A 0.21 0.21 0.0 0 1 129.40 180.18
  Z"
/>
<path fill="#ffffff" d="
  M 158.60 178.23
  Q 159.61 178.26 160.60 178.32
  A 1.09 0.98 -61.5 0 1 161.04 180.18
  Q 161.02 180.20 160.74 180.20
  A 0.47 0.47 0.0 0 1 160.37 180.02
  Q 159.77 179.24 158.50 178.67
  A 0.23 0.23 0.0 0 1 158.60 178.23
  Z"
/>
<path fill="#ffffff" d="
  M 166.28 191.94
  A 1.73 1.73 0.0 0 1 164.55 190.21
  L 164.55 189.33
  A 11.49 7.17 -89.9 0 1 171.74 177.85
  A 11.49 7.17 -89.9 0 1 178.89 189.35
  L 178.89 190.23
  A 1.73 1.73 0.0 0 1 177.16 191.96
  L 166.28 191.94
  Z"
/>
<ellipse fill="#ffffff" cx="0.00" cy="0.00" transform="translate(188.11,178.81) rotate(-1.1)" rx="4.92" ry="0.26"/>
<path fill="#ffffff" d="
  M 210.34 182.50
  Q 210.07 182.61 209.89 182.55
  A 0.24 0.24 0.0 0 1 209.88 182.09
  Q 209.92 182.08 210.26 182.07
  A 0.22 0.22 0.0 0 1 210.34 182.50
  Z"
/>
<ellipse fill="#ffffff" cx="0.00" cy="0.00" transform="translate(150.23,192.60) rotate(-51.0)" rx="5.39" ry="0.44"/>
<path fill="#ffffff" d="
  M 158.72 190.05
  L 158.93 190.20
  A 4.90 0.45 -54.2 0 1 156.43 194.43
  L 152.96 199.24
  A 4.90 0.45 -54.2 0 1 149.73 202.95
  L 149.53 202.80
  L 158.72 190.05
  Z"
/>
<ellipse fill="#ffffff" cx="0.00" cy="0.00" transform="translate(147.17,192.72) rotate(-44.7)" rx="1.30" ry="0.23"/>
<ellipse fill="#ffffff" cx="0.00" cy="0.00" transform="translate(182.12,196.25) rotate(-118.2)" rx="2.76" ry="0.18"/>
<path fill="#ffffff" d="
  M 245.74 236.78
  C 249.78 233.93 252.97 231.61 253.61 226.87
  C 254.98 216.89 252.73 206.61 250.16 196.18
  A 0.23 0.23 0.0 0 1 250.32 195.90
  L 250.33 195.90
  A 0.22 0.22 0.0 0 1 250.60 196.05
  Q 255.15 210.75 256.07 215.19
  C 256.83 218.81 257.56 222.89 256.59 226.70
  Q 254.66 234.36 245.87 237.04
  A 0.15 0.15 0.0 0 1 245.74 236.78
  Z"
/>
<path fill="#ffffff" d="
  M 182.09 203.22
  A 0.31 0.31 0.0 0 1 182.68 203.10
  L 185.34 208.05
  A 1.51 1.48 -57.9 0 1 185.51 208.82
  L 185.11 217.29
  A 0.62 0.61 -87.2 0 0 185.69 217.94
  L 189.90 218.14
  A 0.59 0.59 0.0 0 0 190.52 217.58
  L 190.59 216.02
  A 0.47 0.47 0.0 0 1 191.46 215.81
  L 193.70 219.70
  A 0.22 0.22 0.0 0 1 193.51 220.03
  L 158.98 220.03
  A 8.00 7.52 -38.0 0 1 157.56 219.90
  Q 153.31 219.08 149.54 219.09
  Q 149.02 219.10 146.25 217.63
  A 0.71 0.70 26.0 0 1 145.93 216.72
  Q 146.46 215.51 147.23 214.98
  A 0.45 0.45 0.0 0 1 147.94 215.37
  L 147.85 217.15
  A 0.97 0.96 3.0 0 0 148.77 218.16
  L 151.98 218.31
  A 0.89 0.89 0.0 0 0 152.92 217.44
  Q 153.07 210.48 157.28 204.16
  A 0.29 0.29 0.0 0 1 157.81 204.34
  L 157.18 217.40
  A 0.59 0.59 0.0 0 0 157.74 218.02
  L 161.89 218.22
  A 0.55 0.55 0.0 0 0 162.46 217.66
  Q 162.19 207.32 165.97 198.77
  Q 166.23 198.18 166.70 198.05
  A 0.48 0.47 -6.3 0 1 167.30 198.53
  L 166.41 217.15
  A 0.71 0.71 0.0 0 0 167.12 217.90
  L 170.80 217.90
  A 0.60 0.59 -88.5 0 0 171.39 217.33
  L 172.34 197.55
  A 0.83 0.82 6.7 0 1 173.32 196.78
  L 174.85 197.07
  A 1.54 1.53 7.2 0 1 176.09 198.65
  L 175.22 216.79
  A 0.87 0.87 0.0 0 0 176.05 217.70
  L 180.01 217.89
  A 0.79 0.78 4.2 0 0 180.84 217.18
  L 182.09 203.22
  Z"
/>
<rect fill="#ffffff" x="-0.38" y="-9.75" transform="translate(205.53,208.78) rotate(28.9)" width="0.76" height="19.50" rx="0.26"/>
<ellipse fill="#ffffff" cx="0.00" cy="0.00" transform="translate(140.93,204.77) rotate(-48.9)" rx="3.16" ry="0.31"/>
<ellipse fill="#ffffff" cx="0.00" cy="0.00" transform="translate(137.06,213.55) rotate(-112.6)" rx="4.07" ry="0.51"/>
<path fill="#ffffff" d="
  M 135.71 222.25
  L 134.54 221.61
  A 1.34 1.34 0.0 0 1 134.71 219.17
  Q 137.32 218.19 138.65 220.37
  A 1.02 1.00 52.3 0 1 138.50 221.61
  Q 137.71 222.39 138.45 223.15
  A 1.19 1.10 54.1 0 1 138.23 224.99
  Q 136.35 225.90 134.52 224.45
  A 0.79 0.79 0.0 0 1 134.96 223.04
  L 135.55 222.99
  A 0.40 0.40 0.0 0 0 135.71 222.25
  Z"
/>
<path fill="#ffffff" d="
  M 203.04 222.98
  L 203.63 223.01
  A 0.79 0.79 0.0 0 1 204.10 224.41
  Q 202.31 225.91 200.41 225.05
  A 1.19 1.10 -55.6 0 1 200.14 223.21
  Q 200.86 222.44 200.05 221.68
  A 1.02 1.00 -53.8 0 1 199.87 220.44
  Q 201.14 218.23 203.78 219.14
  A 1.34 1.34 0.0 0 1 204.01 221.57
  L 202.86 222.24
  A 0.40 0.40 0.0 0 0 203.04 222.98
  Z"
/>
<path fill="#ffffff" d="
  M 185.29 225.11
  L 183.29 225.18
  Q 182.30 225.03 181.46 225.30
  L 179.80 225.41
  Q 164.41 226.90 149.01 225.99
  Q 144.95 225.75 142.09 224.88
  A 0.29 0.29 0.0 0 1 142.03 224.35
  L 142.41 224.13
  A 0.62 0.54 -56.3 0 1 142.70 224.05
  L 195.02 224.05
  A 0.23 0.23 0.0 0 1 195.25 224.28
  L 195.24 224.55
  A 0.12 0.11 -5.0 0 1 195.13 224.67
  L 185.29 225.11
  Z"
/>
<path fill="#070b08" d="
  M 185.29 225.11
  L 183.29 225.18
  L 185.29 225.11
  Z"
/>
<path fill="#070b08" d="
  M 181.46 225.30
  L 179.80 225.41
  L 181.46 225.30
  Z"
/>
<path fill="#070b08" d="
  M 163.01 228.63
  C 162.88 228.63 162.75 228.63 162.62 228.63
  C 162.75 228.62 162.89 228.62 163.01 228.63
  Z"
/>
<ellipse fill="#070b08" cx="0.00" cy="0.00" transform="translate(157.24,229.16) rotate(-179.3)" rx="2.00" ry="0.23"/>
<path fill="#070b08" d="
  M 169.51 230.63
  Q 169.38 230.63 169.24 230.62
  Q 169.20 230.62 169.24 230.62
  Q 169.38 230.62 169.51 230.63
  Z"
/>
<path fill="#ffffff" d="
  M 155.63 231.37
  C 155.51 231.38 155.36 231.39 155.24 231.37
  C 155.37 231.37 155.50 231.37 155.63 231.37
  Z"
/>
<path fill="#ffffff" d="
  M 179.53 231.37
  Q 179.57 231.37 180.05 231.56
  Q 180.27 231.64 180.40 231.62
  Q 180.64 231.59 180.66 231.67
  A 0.10 0.10 0.0 0 1 180.55 231.80
  Q 179.75 231.65 179.61 231.64
  A 0.16 0.12 35.9 0 1 179.53 231.37
  Z"
/>
<path fill="#ffffff" d="
  M 157.13 231.62
  Q 156.66 231.63 156.19 231.62
  Q 156.66 231.62 157.13 231.62
  Z"
/>
<ellipse fill="#ffffff" cx="0.00" cy="0.00" transform="translate(191.13,232.36) rotate(-38.2)" rx="0.45" ry="0.18"/>
<path fill="#070b08" d="
  M 189.78 233.41
  Q 189.82 233.09 189.98 232.99
  A 0.22 0.22 0.0 0 1 190.29 233.25
  Q 190.26 233.35 190.22 233.49
  A 0.23 0.22 -34.4 0 1 189.78 233.41
  Z"
/>
<path fill="#070b08" d="
  M 179.02 234.11
  Q 178.75 234.19 178.71 234.19
  A 0.10 0.09 -37.7 0 1 178.74 234.00
  Q 178.91 234.00 179.02 234.11
  Z"
/>
<path fill="#070b08" d="
  M 172.62 234.62
  Q 172.83 234.62 173.04 234.62
  Q 173.08 234.62 173.04 234.63
  Q 172.83 234.63 172.62 234.62
  Z"
/>
</svg>
